<svg xmlns="http://www.w3.org/2000/svg" viewBox="0 0 1394.35 337" width="1394.35" height="337" style="--bg:#ffffff;--fg:#1f2328;--line:#d1d9e0;--accent:#0969da;--muted:#59636e">
<style>
  @import url('https://fonts.googleapis.com/css2?family=Inter:wght@400;500;600;700&amp;display=swap');
  text { font-family: 'Inter', system-ui, sans-serif; }
  svg {
    /* Derived from --bg and --fg (overridable via --line, --accent, etc.) */
    --_text:          var(--fg);
    --_text-sec:      var(--muted, color-mix(in srgb, var(--fg) 60%, var(--bg)));
    --_text-muted:    var(--muted, color-mix(in srgb, var(--fg) 40%, var(--bg)));
    --_text-faint:    color-mix(in srgb, var(--fg) 25%, var(--bg));
    --_line:          var(--line, color-mix(in srgb, var(--fg) 30%, var(--bg)));
    --_arrow:         var(--accent, color-mix(in srgb, var(--fg) 50%, var(--bg)));
    --_node-fill:     var(--surface, color-mix(in srgb, var(--fg) 3%, var(--bg)));
    --_node-stroke:   var(--border, color-mix(in srgb, var(--fg) 20%, var(--bg)));
    --_group-fill:    var(--bg);
    --_group-hdr:     color-mix(in srgb, var(--fg) 5%, var(--bg));
    --_inner-stroke:  color-mix(in srgb, var(--fg) 12%, var(--bg));
    --_key-badge:     color-mix(in srgb, var(--fg) 10%, var(--bg));
  }
</style>
<defs>
  <marker id="arrowhead" markerWidth="8" markerHeight="4.8" refX="8" refY="2.4" orient="auto">
    <polygon points="0 0, 8 2.4, 0 4.8" fill="var(--_arrow)" />
  </marker>
  <marker id="arrowhead-start" markerWidth="8" markerHeight="4.8" refX="0" refY="2.4" orient="auto-start-reverse">
    <polygon points="8 0, 0 2.4, 8 4.8" fill="var(--_arrow)" />
  </marker>
</defs>
<polyline points="100.6,158 140.60000000000002,158" fill="none" stroke="var(--_line)" stroke-width="0.75" marker-end="url(#arrowhead)" />
<polyline points="322.75,158 362.75,158" fill="none" stroke="var(--_line)" stroke-width="0.75" marker-end="url(#arrowhead)" />
<polyline points="516.3,158 536.3,158 536.3,58 556.3,58" fill="none" stroke="var(--_line)" stroke-width="0.75" marker-end="url(#arrowhead)" />
<polyline points="516.3,158 536.3,158 536.3,98 1216.8,98 1216.8,90" fill="none" stroke="var(--_line)" stroke-width="0.75" marker-end="url(#arrowhead)" />
<polyline points="788.5,58 828.5,58" fill="none" stroke="var(--_line)" stroke-width="0.75" marker-end="url(#arrowhead)" />
<polyline points="516.3,158 536.3,158 536.3,178 1216.8,178 1216.8,174.5" fill="none" stroke="var(--_line)" stroke-width="0.75" marker-end="url(#arrowhead)" />
<polyline points="516.3,158 536.3,158 536.3,258 1216.8,258 1216.8,250" fill="none" stroke="var(--_line)" stroke-width="0.75" marker-end="url(#arrowhead)" />
<polyline points="516.3,158 536.3,158 536.3,218 617.0749999999999,218" fill="none" stroke="var(--_line)" stroke-width="0.75" marker-end="url(#arrowhead)" />
<polyline points="516.3,158 536.3,158 536.3,138 606.3499999999999,138" fill="none" stroke="var(--_line)" stroke-width="0.75" marker-end="url(#arrowhead)" />
<polyline points="727.725,218 857.1,218" fill="none" stroke="var(--_line)" stroke-width="0.75" marker-end="url(#arrowhead)" />
<polyline points="1010.65,218 1059.25,218 1059.25,138 1216.8,138 1216.8,126" fill="none" stroke="var(--_line)" stroke-width="0.75" marker-end="url(#arrowhead)" />
<polyline points="1010.65,218 1059.25,218 1059.25,283.5 1216.8,283.5 1216.8,297" fill="none" stroke="var(--_line)" stroke-width="0.75" marker-end="url(#arrowhead)" />
<polyline points="1010.65,218 1216.8,218 1216.8,221.5" fill="none" stroke="var(--_line)" stroke-width="0.75" marker-end="url(#arrowhead)" />
<rect x="40" y="140" width="60.6" height="36" rx="18" ry="18" fill="var(--_node-fill)" stroke="var(--_node-stroke)" stroke-width="0.75" />
<rect x="140.60000000000002" y="140" width="182.15" height="36" rx="0" ry="0" fill="var(--_node-fill)" stroke="var(--_node-stroke)" stroke-width="0.75" />
<rect x="362.75" y="140" width="153.55" height="36" rx="0" ry="0" fill="var(--_node-fill)" stroke="var(--_node-stroke)" stroke-width="0.75" />
<rect x="556.3" y="40" width="232.20000000000002" height="36" rx="0" ry="0" fill="var(--_node-fill)" stroke="var(--_node-stroke)" stroke-width="0.75" />
<rect x="1079.25" y="90" width="275.1" height="36" rx="0" ry="0" fill="var(--_node-fill)" stroke="var(--_node-stroke)" stroke-width="0.75" />
<rect x="828.5" y="40" width="210.75000000000003" height="36" rx="0" ry="0" fill="var(--_node-fill)" stroke="var(--_node-stroke)" stroke-width="0.75" />
<rect x="1122.1499999999999" y="181.5" width="189.3" height="33" fill="var(--_node-fill)" stroke="none" />
<line x1="1122.1499999999999" y1="181.5" x2="1122.1499999999999" y2="214.5" stroke="var(--_node-stroke)" stroke-width="0.75" />
<line x1="1311.4499999999998" y1="181.5" x2="1311.4499999999998" y2="214.5" stroke="var(--_node-stroke)" stroke-width="0.75" />
<ellipse cx="1216.8" cy="214.5" rx="94.65" ry="7" fill="var(--_node-fill)" stroke="var(--_node-stroke)" stroke-width="0.75" />
<ellipse cx="1216.8" cy="181.5" rx="94.65" ry="7" fill="var(--_node-fill)" stroke="var(--_node-stroke)" stroke-width="0.75" />
<rect x="1154.325" y="257" width="124.95" height="33" fill="var(--_node-fill)" stroke="none" />
<line x1="1154.325" y1="257" x2="1154.325" y2="290" stroke="var(--_node-stroke)" stroke-width="0.75" />
<line x1="1279.275" y1="257" x2="1279.275" y2="290" stroke="var(--_node-stroke)" stroke-width="0.75" />
<ellipse cx="1216.8" cy="290" rx="62.475" ry="7" fill="var(--_node-fill)" stroke="var(--_node-stroke)" stroke-width="0.75" />
<ellipse cx="1216.8" cy="257" rx="62.475" ry="7" fill="var(--_node-fill)" stroke="var(--_node-stroke)" stroke-width="0.75" />
<rect x="617.0749999999999" y="200" width="110.65" height="36" rx="0" ry="0" fill="var(--_node-fill)" stroke="var(--_node-stroke)" stroke-width="0.75" />
<rect x="606.3499999999999" y="120" width="132.10000000000002" height="36" rx="0" ry="0" fill="var(--_node-fill)" stroke="var(--_node-stroke)" stroke-width="0.75" />
<rect x="857.1" y="200" width="153.55" height="36" rx="0" ry="0" fill="var(--_node-fill)" stroke="var(--_node-stroke)" stroke-width="0.75" />
<text x="70.3" y="158" text-anchor="middle" dy="0.35em" font-size="13" font-weight="500" fill="var(--_text)">ユーザー</text>
<text x="231.675" y="158" text-anchor="middle" dy="0.35em" font-size="13" font-weight="500" fill="var(--_text)">Frontend / Next.js 16</text>
<text x="439.525" y="158" text-anchor="middle" dy="0.35em" font-size="13" font-weight="500" fill="var(--_text)">Backend / FastAPI</text>
<text x="672.4" y="58" text-anchor="middle" dy="0.35em" font-size="13" font-weight="500" fill="var(--_text)">Vertex AI / gemini-3-preview</text>
<text x="1216.8" y="108" text-anchor="middle" dy="0.35em" font-size="13" font-weight="500" fill="var(--_text)">Vertex AI / gemini-2.5-flash-image</text>
<text x="933.875" y="58" text-anchor="middle" dy="0.35em" font-size="13" font-weight="500" fill="var(--_text)">Google Search / Grounding</text>
<text x="1216.8" y="198" text-anchor="middle" dy="0.35em" font-size="13" font-weight="500" fill="var(--_text)">Cloud SQL / PostgreSQL</text>
<text x="1216.8" y="273.5" text-anchor="middle" dy="0.35em" font-size="13" font-weight="500" fill="var(--_text)">Cloud Storage</text>
<text x="672.4" y="218" text-anchor="middle" dy="0.35em" font-size="13" font-weight="500" fill="var(--_text)">Cloud Tasks</text>
<text x="672.3999999999999" y="138" text-anchor="middle" dy="0.35em" font-size="13" font-weight="500" fill="var(--_text)">Secret Manager</text>
<text x="933.875" y="218" text-anchor="middle" dy="0.35em" font-size="13" font-weight="500" fill="var(--_text)">Spot Image Worker</text>
</svg>